<?xml version="1.0" standalone="no"?>
<!DOCTYPE svg PUBLIC "-//W3C//DTD SVG 20010904//EN"
 "http://www.w3.org/TR/2001/REC-SVG-20010904/DTD/svg10.dtd">
<svg version="1.0" xmlns="http://www.w3.org/2000/svg"
 width="300.000000pt" height="300.000000pt" viewBox="0 0 300.000000 300.000000"
 preserveAspectRatio="xMidYMid meet">
<metadata>
Created by potrace 1.11, written by Peter Selinger 2001-2013
</metadata>
<g transform="translate(0.000000,300.000000) scale(0.100000,-0.100000)"
fill="#000000" stroke="none">
<path d="M1329 2416 c-2 -2 -44 -7 -94 -11 -49 -4 -92 -8 -95 -10 -3 -2 -26
-6 -50 -10 -25 -3 -52 -8 -60 -10 -8 -2 -29 -7 -46 -10 -104 -17 -308 -87
-429 -148 -339 -168 -538 -406 -550 -657 -9 -174 67 -359 201 -494 48 -48 104
-96 104 -90 0 4 10 -3 21 -15 17 -18 23 -20 30 -9 7 11 9 11 9 -1 0 -15 46
-61 61 -61 5 0 9 -5 9 -10 0 -6 3 -9 8 -8 10 3 135 -62 143 -74 3 -5 9 -9 13
-9 29 4 46 -1 40 -11 -5 -8 -2 -9 9 -5 10 3 17 2 17 -4 0 -6 5 -7 10 -4 5 3
10 1 10 -4 0 -6 9 -11 20 -11 11 0 20 -4 20 -10 0 -5 5 -10 11 -10 5 0 7 5 4
10 -3 6 10 1 29 -11 19 -11 40 -18 46 -14 5 3 10 1 10 -5 0 -6 5 -8 10 -5 6 3
10 1 10 -5 0 -8 6 -7 21 1 15 8 19 8 15 0 -4 -6 -1 -12 6 -13 7 0 18 -2 23 -2
6 -1 15 -4 20 -7 6 -3 26 -6 44 -8 19 -1 37 -4 39 -6 3 -3 11 3 19 13 8 9 12
11 8 5 -7 -15 11 -18 20 -3 3 6 20 10 36 10 18 0 28 4 24 10 -3 6 0 10 7 10
25 0 109 60 102 72 -4 6 -3 8 3 5 13 -8 65 31 58 44 -4 5 0 6 8 3 8 -3 18 0
23 7 5 8 3 10 -7 5 -8 -5 1 4 19 19 18 15 30 30 27 35 -3 5 0 12 6 16 8 5 9 3
4 -7 -7 -12 -6 -12 7 -1 9 7 15 22 13 33 -3 12 0 17 7 13 8 -5 9 -1 5 10 -4
10 -3 15 3 11 6 -3 10 -1 10 5 0 6 6 8 13 4 6 -4 9 -4 5 1 -4 4 -3 14 3 22 6
7 9 22 6 32 -3 14 -1 18 9 14 8 -3 14 1 14 10 0 9 10 33 22 53 15 26 17 35 8
30 -11 -5 -10 -3 1 6 9 7 14 19 12 26 -3 6 0 12 6 12 6 0 11 7 11 15 0 8 6 15
13 15 8 0 7 4 -3 10 -11 7 -11 10 -2 10 7 0 10 5 7 10 -3 6 -1 10 5 10 6 0 8
5 5 10 -3 6 0 10 7 10 11 0 10 2 0 9 -11 7 -10 9 3 15 9 3 14 10 10 15 -3 5 0
13 6 16 5 4 8 14 5 22 -3 8 -1 11 4 8 9 -6 14 8 11 28 0 4 4 7 10 7 5 0 7 5 4
10 -3 6 -1 10 6 10 7 0 10 3 6 6 -3 4 1 13 9 22 9 8 13 23 11 33 -3 12 0 16 9
12 9 -3 14 2 14 16 0 12 5 21 11 21 6 0 8 7 5 16 -3 8 -2 12 3 9 5 -3 12 -1
16 5 3 5 1 10 -4 10 -6 0 -11 5 -11 11 0 5 4 8 9 5 5 -3 14 1 21 9 7 8 9 15 4
15 -5 0 -1 7 10 15 10 7 15 18 12 23 -3 6 1 12 9 16 8 3 15 10 15 16 0 6 -5 8
-12 4 -7 -4 -8 -3 -4 5 4 6 11 9 15 7 4 -3 18 9 31 27 13 18 17 28 9 22 -8 -5
-7 -3 3 7 10 9 18 20 18 25 0 4 9 14 20 21 11 7 20 19 20 27 0 8 5 15 11 15 6
0 8 7 5 16 -3 8 -2 13 3 10 4 -3 17 2 27 10 10 9 12 13 4 9 -8 -4 -6 1 5 10
11 9 19 21 17 26 -1 5 1 8 5 8 21 -3 33 2 33 15 0 8 5 18 12 22 7 5 8 3 2 -7
-4 -8 7 -1 26 15 19 16 35 32 35 37 0 4 4 11 9 16 5 5 6 3 2 -4 -4 -7 -2 -13
3 -13 6 0 11 5 11 10 0 6 6 9 13 8 6 -2 11 2 10 9 -2 7 6 10 18 8 15 -3 19 0
15 10 -3 8 -1 15 4 15 6 0 10 -6 10 -12 0 -10 3 -9 9 1 5 8 14 10 22 6 9 -6
11 -3 5 10 -5 15 -4 16 9 5 10 -8 15 -9 15 -1 0 6 3 10 8 10 4 -1 9 -1 12 0 7
3 71 13 88 14 6 0 12 4 12 8 0 4 9 5 20 2 13 -3 20 0 21 8 0 8 4 5 9 -6 5 -11
9 -15 9 -8 1 7 8 10 16 7 9 -4 15 0 15 7 0 11 2 11 9 0 8 -13 12 -13 27 0 10
8 15 9 11 3 -4 -7 6 -11 26 -12 40 -2 74 -9 89 -18 8 -5 9 -2 4 11 -5 15 -4
16 9 5 13 -11 15 -10 10 2 -9 22 -149 103 -245 142 -134 54 -320 103 -378 100
-185 -10 -451 -177 -588 -369 -49 -69 -92 -165 -149 -330 -76 -223 -142 -338
-265 -464 -119 -120 -266 -201 -430 -236 -3 -1 -27 -4 -55 -9 -27 -4 -62 -9
-77 -12 -15 -2 -30 0 -33 6 -4 6 1 7 11 3 12 -4 15 -3 10 5 -5 8 -2 10 9 5 10
-3 21 0 26 8 6 11 9 11 9 1 0 -10 5 -10 20 -2 11 6 26 8 32 4 8 -5 9 -2 5 10
-4 10 -3 15 3 11 14 -9 52 4 45 15 -3 5 0 12 6 16 8 4 9 3 5 -4 -10 -16 9 -15
26 1 7 7 21 16 31 20 11 4 15 12 11 18 -4 7 -3 9 3 6 6 -4 32 13 57 37 25 23
46 40 46 37 0 -3 11 11 24 31 12 21 25 36 28 33 2 -3 13 13 24 35 10 22 23 40
28 40 4 0 6 6 3 14 -3 8 -2 16 4 18 5 2 11 13 13 25 3 12 9 30 15 41 6 11 7
22 4 26 -3 3 -1 6 7 6 10 0 10 4 -1 17 -10 11 -10 14 -1 9 11 -6 17 11 13 37
0 4 4 7 9 7 6 0 10 5 10 11 0 5 -5 7 -11 3 -6 -3 -3 5 6 20 10 14 13 26 9 26
-5 0 -2 5 6 10 13 9 13 10 0 10 -13 1 -13 2 1 10 10 6 15 22 14 49 -1 23 3 39
9 38 6 -1 11 10 10 26 0 15 4 27 9 27 5 0 7 6 4 14 -3 8 1 17 10 20 9 4 13 14
10 26 -3 13 -1 18 6 13 6 -4 8 2 4 16 -3 13 -3 20 0 17 10 -10 35 33 27 46 -4
6 -3 8 4 4 10 -6 28 30 24 47 -1 4 2 6 7 5 5 -2 9 1 9 6 0 5 8 13 17 18 12 7
13 13 5 23 -8 10 -8 15 1 21 8 5 9 3 4 -6 -5 -8 -3 -11 6 -8 8 3 14 14 13 25
0 15 5 19 18 15 13 -3 17 0 12 11 -3 10 2 18 17 22 17 6 19 9 8 16 -12 7 -11
9 2 9 8 0 34 20 56 44 23 25 45 41 49 38 4 -4 4 1 1 10 -4 12 -2 15 9 11 7 -3
14 0 14 6 0 6 7 11 15 11 7 0 19 8 24 18 6 9 11 13 11 9 0 -4 6 -2 14 5 8 7
12 16 10 20 -2 3 6 4 18 0 13 -3 19 -1 15 5 -6 9 25 24 56 27 4 1 11 7 16 14
5 8 10 13 12 11 2 -1 15 1 29 5 14 5 29 7 34 7 5 -1 6 6 2 15 -5 13 -3 14 6 7
17 -13 64 0 60 17 -2 11 0 11 11 1 10 -8 22 -9 40 -2 14 5 28 7 31 4 3 -4 6 0
6 8 0 11 2 11 10 -1 8 -12 10 -12 10 5 0 17 2 17 10 5 9 -13 11 -13 20 0 8 13
10 13 10 1 0 -11 4 -10 14 4 12 17 16 18 32 5 11 -9 15 -10 10 -2 -5 8 2 12
24 12 44 0 29 16 -18 18 -22 2 -50 5 -63 8 -29 6 -444 15 -450 10z"/>
<path d="M1800 2359 c0 -5 5 -7 10 -4 6 3 10 8 10 11 0 2 -4 4 -10 4 -5 0 -10
-5 -10 -11z"/>
<path d="M2589 2080 c-15 -4 -46 -10 -70 -13 -252 -32 -363 -134 -515 -480
-80 -181 -206 -433 -237 -472 -4 -5 -22 -32 -39 -59 -18 -27 -59 -77 -93 -111
-162 -165 -356 -266 -517 -269 -28 -1 -34 -4 -26 -14 6 -7 18 -10 26 -7 9 3
12 0 9 -9 -6 -15 29 -16 54 -1 11 7 12 6 2 -6 -9 -11 -6 -14 15 -16 15 -1 33
4 41 10 12 10 13 9 6 -2 -6 -11 -4 -13 8 -8 10 3 17 2 17 -3 0 -6 5 -10 11
-10 5 0 8 4 5 8 -3 5 1 9 9 9 8 0 12 -4 9 -8 -2 -5 11 -7 31 -5 19 1 35 -2 36
-8 0 -6 4 -2 9 9 7 15 9 16 9 4 1 -13 8 -15 40 -9 25 4 44 3 50 -3 8 -8 11 -7
11 2 0 11 3 11 15 1 11 -9 15 -9 15 -1 0 9 5 9 20 1 15 -8 20 -8 20 2 0 9 3 9
10 -2 5 -8 10 -10 10 -4 0 6 13 9 31 6 25 -4 30 -2 24 9 -7 11 -6 12 6 2 17
-14 87 -10 117 6 11 6 23 7 26 3 3 -5 19 -7 35 -4 20 3 28 8 24 16 -4 6 1 5
10 -3 11 -8 17 -9 17 -3 0 7 7 9 17 5 12 -5 14 -3 8 8 -8 12 -6 12 9 0 12 -10
20 -11 28 -3 6 6 17 8 26 5 9 -4 13 -2 9 4 -5 7 1 9 15 5 14 -3 19 -1 14 6 -3
6 -2 14 4 17 6 4 10 3 9 -2 -3 -20 3 -23 24 -11 12 6 32 12 45 12 12 1 27 8
32 16 8 12 10 12 10 1 0 -10 3 -11 13 -2 8 6 17 8 20 5 3 -3 12 -2 19 2 7 5
16 9 20 9 13 0 21 15 8 15 -7 0 -11 3 -8 6 4 3 16 1 27 -6 14 -7 21 -7 21 0 0
5 3 9 8 9 19 -3 33 2 28 10 -4 5 3 7 14 4 12 -3 20 0 20 8 0 7 3 10 6 6 9 -9
105 31 122 51 7 9 11 12 8 6 -3 -6 13 -2 35 9 28 14 38 24 34 35 -4 12 -3 13
10 2 12 -10 15 -9 15 6 0 13 3 15 8 7 6 -9 15 -6 35 11 15 13 23 26 20 30 -4
4 0 4 9 1 10 -4 24 1 35 12 11 10 39 34 64 53 24 19 55 48 68 63 14 16 30 34
36 41 6 6 10 17 7 25 -3 8 -1 11 4 9 5 -3 18 4 29 15 11 11 14 17 5 13 -8 -4
-4 2 10 13 14 11 21 21 16 21 -5 0 -1 9 8 19 10 11 19 27 20 36 1 9 8 20 16
25 7 4 11 17 7 29 -3 13 1 25 11 31 10 5 13 10 8 10 -5 0 -3 7 4 15 10 12 10
15 -1 15 -12 0 -12 2 0 9 8 5 11 16 8 26 -5 10 -3 14 4 9 7 -4 10 -1 7 7 -3 8
-1 26 3 41 4 16 3 30 -2 34 -6 4 -6 10 0 18 6 7 8 16 4 20 -4 3 -8 23 -10 44
-4 51 -8 70 -16 78 -4 4 -7 15 -7 25 0 28 -72 160 -123 227 -56 72 -176 182
-197 181 -8 0 -27 -4 -41 -9z"/>
</g>
</svg>
